<mxfile host="app.diagrams.net" modified="2023-11-20T09:46:52.872Z" agent="Mozilla/5.0 (X11; Linux x86_64) AppleWebKit/537.36 (KHTML, like Gecko) Chrome/117.0.0.0 Safari/537.36 OPR/103.0.0.0" version="22.1.3" etag="MwIaF6lgiSLWhHxdxMo1" type="github">
  <diagram name="Page-1" id="82nFH8j2LujxR3FPhPt7">
    <mxGraphModel>
      <root>
        <mxCell id="0" />
        <mxCell id="1" parent="0" />
      </root>
    </mxGraphModel>
  </diagram>
</mxfile>
